<svg width="133" height="26" viewBox="0 0 133 26" fill="none" xmlns="http://www.w3.org/2000/svg">
<rect y="3" width="121" height="23" fill="#1C3648"/>
<path d="M7.55335 6.37744H9.38605C10.8548 6.37744 12.0246 6.44243 12.8955 6.57241C13.7663 6.68939 14.5332 7.06632 15.1961 7.70322C15.872 8.34011 16.2099 9.36044 16.2099 10.7642C16.2099 12.038 15.924 13.0063 15.3521 13.6692C14.7931 14.3191 14.0978 14.748 13.2659 14.956C12.447 15.151 11.4982 15.2485 10.4194 15.2485V20.883L7.55335 21.117V6.37744ZM10.9263 12.9283C11.6802 12.9283 12.2716 12.7724 12.7005 12.4604C13.1424 12.1485 13.3634 11.5766 13.3634 10.7447C13.3634 9.92585 13.1619 9.37344 12.759 9.08749C12.3561 8.80153 11.7192 8.65856 10.8483 8.65856H10.4389V12.9283H10.9263ZM17.7736 6.72838L20.5032 6.37744V11.4271C21.621 10.4003 22.6673 9.88685 23.6421 9.88685C24.331 9.88685 24.8899 10.1403 25.3189 10.6472C25.7608 11.1411 25.9817 11.8105 25.9817 12.6554V20.883L23.2522 21.117V13.6497C23.2522 13.1688 23.1612 12.8114 22.9792 12.5774C22.8103 12.3434 22.5828 12.2265 22.2969 12.2265C22.0629 12.2265 21.8159 12.285 21.556 12.4019C21.296 12.5189 20.9451 12.7074 20.5032 12.9673V20.883L17.7736 21.117V6.72838ZM31.8515 21.2535C30.5387 21.2535 29.5249 20.7335 28.81 19.6937C28.1081 18.6539 27.7572 17.2696 27.7572 15.5409C27.7572 13.8252 28.1081 12.4539 28.81 11.4271C29.5119 10.4003 30.5257 9.88685 31.8515 9.88685C33.1643 9.88685 34.1781 10.4003 34.893 11.4271C35.6209 12.4539 35.9848 13.8252 35.9848 15.5409C35.9848 17.2566 35.6209 18.6409 34.893 19.6937C34.1781 20.7335 33.1643 21.2535 31.8515 21.2535ZM31.8515 19.2258C32.4364 19.2258 32.8133 18.8684 32.9823 18.1535C33.1513 17.4386 33.2357 16.5612 33.2357 15.5214C33.2357 14.4816 33.1513 13.6042 32.9823 12.8894C32.8133 12.1745 32.4364 11.817 31.8515 11.817C31.2666 11.817 30.8961 12.155 30.7402 12.8309C30.5842 13.5067 30.5062 14.3321 30.5062 15.3069C30.5062 16.5027 30.5842 17.4581 30.7402 18.173C30.8961 18.8749 31.2666 19.2258 31.8515 19.2258ZM41.5849 21.2145C40.7011 21.2145 39.9537 20.9935 39.3428 20.5516C38.7319 20.0967 38.4265 19.2973 38.4265 18.1535V12.09H36.9057L37.0227 10.0233H38.5044L38.7774 7.64473L41.156 7.31328V10.0233H43.4176L43.3006 12.09H41.1755V18.134C41.1755 18.5239 41.273 18.8034 41.4679 18.9723C41.6629 19.1413 41.9489 19.2258 42.3258 19.2258C42.5338 19.2258 42.8847 19.1868 43.3786 19.1088V21C43.3266 21.013 43.1187 21.052 42.7547 21.117C42.4038 21.182 42.0139 21.2145 41.5849 21.2145ZM48.4351 21.2535C47.1224 21.2535 46.1085 20.7335 45.3936 19.6937C44.6918 18.6539 44.3408 17.2696 44.3408 15.5409C44.3408 13.8252 44.6918 12.4539 45.3936 11.4271C46.0955 10.4003 47.1094 9.88685 48.4351 9.88685C49.7479 9.88685 50.7618 10.4003 51.4766 11.4271C52.2045 12.4539 52.5685 13.8252 52.5685 15.5409C52.5685 17.2566 52.2045 18.6409 51.4766 19.6937C50.7618 20.7335 49.7479 21.2535 48.4351 21.2535ZM48.4351 19.2258C49.02 19.2258 49.397 18.8684 49.566 18.1535C49.7349 17.4386 49.8194 16.5612 49.8194 15.5214C49.8194 14.4816 49.7349 13.6042 49.566 12.8894C49.397 12.1745 49.02 11.817 48.4351 11.817C47.8502 11.817 47.4798 12.155 47.3238 12.8309C47.1679 13.5067 47.0899 14.3321 47.0899 15.3069C47.0899 16.5027 47.1679 17.4581 47.3238 18.173C47.4798 18.8749 47.8502 19.2258 48.4351 19.2258ZM58.461 21.273C57.2782 21.273 56.2774 20.948 55.4585 20.2981C54.6527 19.6352 54.0613 18.7514 53.6843 17.6466L56.1019 16.5157L56.3359 16.9057C56.7128 17.5556 57.0703 18.0625 57.4082 18.4264C57.7592 18.7904 58.1946 18.9723 58.7145 18.9723C59.0524 18.9723 59.3514 18.8099 59.6113 18.4849C59.8843 18.16 60.0208 17.8025 60.0208 17.4126C60.0208 17.0487 59.9298 16.7172 59.7478 16.4183C59.5659 16.1193 59.3319 15.8789 59.0459 15.6969L56.4919 14.1761C55.751 13.7602 55.1596 13.2338 54.7177 12.5969C54.2757 11.96 54.0548 11.2451 54.0548 10.4523C54.0548 9.6074 54.2497 8.85353 54.6397 8.19064C55.0426 7.52775 55.582 7.01433 56.2579 6.65039C56.9468 6.28645 57.7202 6.10448 58.578 6.10448C59.5789 6.10448 60.4302 6.35144 61.1321 6.84536C61.834 7.33928 62.3539 8.07366 62.6918 9.04849L60.2742 10.1403C60.2222 10.0363 60.1118 9.80237 59.9428 9.43843C59.7738 9.07449 59.5659 8.81453 59.3189 8.65856C59.0849 8.48959 58.7925 8.4051 58.4415 8.4051C58.0126 8.4051 57.6812 8.54158 57.4472 8.81453C57.2262 9.08749 57.1158 9.43843 57.1158 9.86736C57.1158 10.1793 57.2002 10.4653 57.3692 10.7252C57.5512 10.9722 57.7657 11.1671 58.0126 11.3101L60.3717 12.6944C62.1134 13.6822 63.0298 14.982 63.1208 16.5937C63.1208 17.5166 62.9128 18.3354 62.4969 19.0503C62.0939 19.7522 61.535 20.2981 60.8201 20.6881C60.1183 21.078 59.3319 21.273 58.461 21.273ZM64.8209 6.72838L67.5505 6.37744V11.4271C68.6683 10.4003 69.7146 9.88685 70.6895 9.88685C71.3783 9.88685 71.9372 10.1403 72.3662 10.6472C72.8081 11.1411 73.0291 11.8105 73.0291 12.6554V20.883L70.2995 21.117V13.6497C70.2995 13.1688 70.2085 12.8114 70.0266 12.5774C69.8576 12.3434 69.6301 12.2265 69.3442 12.2265C69.1102 12.2265 68.8633 12.285 68.6033 12.4019C68.3433 12.5189 67.9924 12.7074 67.5505 12.9673V20.883L64.8209 21.117V6.72838ZM78.8988 21.2535C77.586 21.2535 76.5722 20.7335 75.8573 19.6937C75.1554 18.6539 74.8045 17.2696 74.8045 15.5409C74.8045 13.8252 75.1554 12.4539 75.8573 11.4271C76.5592 10.4003 77.573 9.88685 78.8988 9.88685C80.2116 9.88685 81.2254 10.4003 81.9403 11.4271C82.6682 12.4539 83.0321 13.8252 83.0321 15.5409C83.0321 17.2566 82.6682 18.6409 81.9403 19.6937C81.2254 20.7335 80.2116 21.2535 78.8988 21.2535ZM78.8988 19.2258C79.4837 19.2258 79.8606 18.8684 80.0296 18.1535C80.1986 17.4386 80.2831 16.5612 80.2831 15.5214C80.2831 14.4816 80.1986 13.6042 80.0296 12.8894C79.8606 12.1745 79.4837 11.817 78.8988 11.817C78.3139 11.817 77.9435 12.155 77.7875 12.8309C77.6315 13.5067 77.5535 14.3321 77.5535 15.3069C77.5535 16.5027 77.6315 17.4581 77.7875 18.173C77.9435 18.8749 78.3139 19.2258 78.8988 19.2258ZM84.8889 10.2573L87.6184 10.0233V11.0957C88.0473 10.6667 88.4438 10.3613 88.8077 10.1793C89.1847 9.98434 89.6201 9.88685 90.114 9.88685C90.7899 9.88685 91.3228 10.0753 91.7127 10.4523C92.1157 10.8292 92.4016 11.4206 92.5706 12.2265C92.7526 13.0193 92.8435 14.0852 92.8435 15.4239C92.8435 17.2566 92.6291 18.6864 92.2002 19.7132C91.7842 20.74 90.9784 21.2535 89.7826 21.2535C89.2366 21.2535 88.8012 21.1495 88.4763 20.9415C88.1513 20.7335 87.8654 20.4411 87.6184 20.0642V23.866L84.8889 24.4119V10.2573ZM88.8077 19.1673C89.2366 19.1673 89.5551 18.9138 89.7631 18.4069C89.984 17.9 90.0945 16.9447 90.0945 15.5409C90.0945 14.2021 89.984 13.2533 89.7631 12.6944C89.5551 12.1355 89.2301 11.856 88.7882 11.856C88.3333 11.856 87.9434 12.1095 87.6184 12.6164V18.29C87.8784 18.8749 88.2748 19.1673 88.8077 19.1673ZM98.2224 21.2535C96.9226 21.2535 95.9283 20.74 95.2394 19.7132C94.5505 18.6734 94.206 17.2956 94.206 15.5799C94.206 13.8382 94.557 12.4539 95.2589 11.4271C95.9607 10.4003 96.9811 9.88685 98.3199 9.88685C99.5936 9.88685 100.568 10.4003 101.244 11.4271C101.92 12.4539 102.258 13.8382 102.258 15.5799C102.258 15.6839 102.239 15.7619 102.2 15.8139C102.161 15.8529 102.141 15.8789 102.141 15.8919H96.9356C96.9356 16.7367 97.0461 17.5101 97.267 18.212C97.488 18.9009 97.8259 19.2453 98.2809 19.2453C98.7878 19.2453 99.1647 18.9528 99.4117 18.3679C99.6586 17.783 99.7886 17.4776 99.8016 17.4516L101.868 18.2315C101.595 19.1673 101.16 19.9082 100.562 20.4541C99.9641 20.987 99.1842 21.2535 98.2224 21.2535ZM99.5676 14.3126C99.5676 13.5327 99.4637 12.9153 99.2557 12.4604C99.0477 12.0055 98.7228 11.778 98.2809 11.778C98.0599 11.778 97.8454 11.8885 97.6375 12.1095C97.4295 12.3304 97.2605 12.6359 97.1306 13.0258C97.0006 13.4158 96.9356 13.8447 96.9356 14.3126H99.5676ZM106.581 21.2535C104.475 21.2535 103.422 19.3428 103.422 15.5214C103.422 13.5327 103.682 12.0965 104.202 11.2126C104.722 10.3288 105.534 9.88685 106.639 9.88685C107.107 9.88685 107.556 10.0428 107.984 10.3548C108.413 10.6537 108.725 11.0307 108.92 11.4856V6.72838L111.669 6.37744V20.883L109.603 21.117L108.92 19.6352C108.79 20.1161 108.55 20.5061 108.199 20.805C107.848 21.104 107.309 21.2535 106.581 21.2535ZM107.595 19.3038C107.984 19.3038 108.303 19.0893 108.55 18.6604C108.797 18.2185 108.92 17.4776 108.92 16.4378V12.7724C108.543 12.1875 108.101 11.895 107.595 11.895C107.166 11.895 106.847 12.051 106.639 12.3629C106.444 12.6619 106.314 13.0583 106.249 13.5522C106.197 14.0462 106.171 14.7026 106.171 15.5214C106.171 16.3533 106.197 17.0292 106.249 17.5491C106.314 18.069 106.451 18.4914 106.659 18.8164C106.867 19.1413 107.179 19.3038 107.595 19.3038Z" fill="url(#paint0_linear_3079_70805)"/>
<rect x="122" y="3" width="3" height="23" fill="url(#paint1_linear_3079_70805)"/>
<rect x="126" y="3" width="3" height="23" fill="url(#paint2_linear_3079_70805)"/>
<rect x="130" y="3" width="3" height="23" fill="url(#paint3_linear_3079_70805)"/>
<defs>
<linearGradient id="paint0_linear_3079_70805" x1="59.5" y1="0" x2="59.5" y2="26" gradientUnits="userSpaceOnUse">
<stop stop-color="#FFFCE1"/>
<stop offset="1" stop-color="#E8E8E8"/>
</linearGradient>
<linearGradient id="paint1_linear_3079_70805" x1="123.5" y1="3" x2="123.5" y2="26" gradientUnits="userSpaceOnUse">
<stop stop-color="#2F4A8E"/>
<stop offset="1" stop-color="#FF5C00"/>
</linearGradient>
<linearGradient id="paint2_linear_3079_70805" x1="127.5" y1="3" x2="127.5" y2="26" gradientUnits="userSpaceOnUse">
<stop stop-color="#D62986"/>
<stop offset="1" stop-color="#29A2D6"/>
</linearGradient>
<linearGradient id="paint3_linear_3079_70805" x1="131.5" y1="3" x2="131.5" y2="26" gradientUnits="userSpaceOnUse">
<stop stop-color="#298DD6"/>
<stop offset="1" stop-color="#29D697"/>
</linearGradient>
</defs>
</svg>
