<svg width="390" height="77" viewBox="0 0 390 77" fill="none" xmlns="http://www.w3.org/2000/svg">
<rect y="8.92859" width="354.357" height="67.3571" fill="#1C3648"/>
<path d="M20.3705 19.1768H25.7377C30.0391 19.1768 33.4649 19.3671 36.0153 19.7478C38.5656 20.0903 40.8115 21.1942 42.7528 23.0594C44.7322 24.9246 45.7219 27.9127 45.7219 32.0237C45.7219 35.7541 44.8844 38.59 43.2096 40.5313C41.5728 42.4345 39.5363 43.6907 37.1001 44.2997C34.702 44.8707 31.9233 45.1562 28.7639 45.1562V61.6574L20.3705 62.3426V19.1768ZM30.2484 38.3616C32.4562 38.3616 34.1882 37.9048 35.4443 36.9912C36.7385 36.0777 37.3856 34.4028 37.3856 31.9667C37.3856 29.5686 36.7956 27.9508 35.6156 27.1134C34.4356 26.2759 32.5704 25.8572 30.02 25.8572H28.821V38.3616H30.2484ZM50.3013 20.2045L58.295 19.1768V33.9651C61.5685 30.9579 64.6328 29.4544 67.4877 29.4544C69.5051 29.4544 71.1419 30.1966 72.3981 31.6812C73.6923 33.1276 74.3394 35.088 74.3394 37.5622V61.6574L66.3457 62.3426V40.4742C66.3457 39.0658 66.0793 38.019 65.5464 37.3338C65.0515 36.6487 64.3854 36.3061 63.5479 36.3061C62.8628 36.3061 62.1395 36.4774 61.3782 36.8199C60.6169 37.1625 59.5892 37.7145 58.295 38.4758V61.6574L50.3013 62.3426V20.2045ZM91.5293 62.7423C87.6848 62.7423 84.7157 61.2197 82.6221 58.1745C80.5666 55.1293 79.5388 51.0753 79.5388 46.0127C79.5388 40.9881 80.5666 36.9722 82.6221 33.9651C84.6776 30.9579 87.6467 29.4544 91.5293 29.4544C95.3739 29.4544 98.343 30.9579 100.437 33.9651C102.568 36.9722 103.634 40.9881 103.634 46.0127C103.634 51.0373 102.568 55.0912 100.437 58.1745C98.343 61.2197 95.3739 62.7423 91.5293 62.7423ZM91.5293 56.8041C93.2423 56.8041 94.3462 55.7573 94.841 53.6637C95.3358 51.5702 95.5833 49.0008 95.5833 45.9556C95.5833 42.9104 95.3358 40.341 94.841 38.2474C94.3462 36.1538 93.2423 35.107 91.5293 35.107C89.8164 35.107 88.7316 36.0967 88.2748 38.0761C87.818 40.0555 87.5896 42.4726 87.5896 45.3275C87.5896 48.8295 87.818 51.6273 88.2748 53.7208C88.7316 55.7764 89.8164 56.8041 91.5293 56.8041ZM120.034 62.6281C117.446 62.6281 115.257 61.981 113.468 60.6868C111.679 59.3545 110.785 57.0135 110.785 53.6637V35.9064H106.331L106.674 29.854H111.013L111.812 22.8881L118.778 21.9175V29.854H125.402L125.059 35.9064H118.835V53.6067C118.835 54.7486 119.121 55.567 119.692 56.0618C120.263 56.5567 121.1 56.8041 122.204 56.8041C122.813 56.8041 123.841 56.6899 125.287 56.4615V62C125.135 62.0381 124.526 62.1523 123.46 62.3426C122.433 62.5329 121.291 62.6281 120.034 62.6281ZM140.096 62.7423C136.251 62.7423 133.282 61.2197 131.189 58.1745C129.133 55.1293 128.105 51.0753 128.105 46.0127C128.105 40.9881 129.133 36.9722 131.189 33.9651C133.244 30.9579 136.213 29.4544 140.096 29.4544C143.94 29.4544 146.909 30.9579 149.003 33.9651C151.135 36.9722 152.2 40.9881 152.2 46.0127C152.2 51.0373 151.135 55.0912 149.003 58.1745C146.909 61.2197 143.94 62.7423 140.096 62.7423ZM140.096 56.8041C141.809 56.8041 142.913 55.7573 143.407 53.6637C143.902 51.5702 144.15 49.0008 144.15 45.9556C144.15 42.9104 143.902 40.341 143.407 38.2474C142.913 36.1538 141.809 35.107 140.096 35.107C138.383 35.107 137.298 36.0967 136.841 38.0761C136.384 40.0555 136.156 42.4726 136.156 45.3275C136.156 48.8295 136.384 51.6273 136.841 53.7208C137.298 55.7764 138.383 56.8041 140.096 56.8041ZM169.457 62.7994C165.993 62.7994 163.062 61.8477 160.664 59.9445C158.304 58.0032 156.572 55.4147 155.468 52.1792L162.549 48.8675L163.234 50.0095C164.338 51.9128 165.384 53.3973 166.374 54.4631C167.402 55.5289 168.677 56.0618 170.2 56.0618C171.189 56.0618 172.065 55.586 172.826 54.6344C173.625 53.6828 174.025 52.636 174.025 51.494C174.025 50.4282 173.759 49.4576 173.226 48.5821C172.693 47.7066 172.008 47.0024 171.17 46.4694L163.69 42.0158C161.521 40.7977 159.789 39.2561 158.495 37.3909C157.2 35.5257 156.553 33.4322 156.553 31.1102C156.553 28.636 157.124 26.4282 158.266 24.4869C159.446 22.5455 161.026 21.042 163.005 19.9761C165.023 18.9103 167.288 18.3774 169.8 18.3774C172.731 18.3774 175.224 19.1007 177.28 20.5471C179.335 21.9936 180.858 24.1443 181.848 26.9992L174.767 30.1966C174.615 29.8921 174.292 29.2069 173.797 28.1411C173.302 27.0753 172.693 26.314 171.97 25.8572C171.284 25.3624 170.428 25.1149 169.4 25.1149C168.144 25.1149 167.173 25.5146 166.488 26.314C165.841 27.1134 165.518 28.1411 165.518 29.3973C165.518 30.3108 165.765 31.1483 166.26 31.9096C166.793 32.6328 167.421 33.2038 168.144 33.6225L175.053 37.6764C180.154 40.5694 182.837 44.3759 183.104 49.0959C183.104 51.7986 182.495 54.1967 181.277 56.2902C180.097 58.3458 178.46 59.9445 176.366 61.0864C174.311 62.2284 172.008 62.7994 169.457 62.7994ZM188.083 20.2045L196.076 19.1768V33.9651C199.35 30.9579 202.414 29.4544 205.269 29.4544C207.287 29.4544 208.923 30.1966 210.18 31.6812C211.474 33.1276 212.121 35.088 212.121 37.5622V61.6574L204.127 62.3426V40.4742C204.127 39.0658 203.861 38.019 203.328 37.3338C202.833 36.6487 202.167 36.3061 201.329 36.3061C200.644 36.3061 199.921 36.4774 199.16 36.8199C198.398 37.1625 197.371 37.7145 196.076 38.4758V61.6574L188.083 62.3426V20.2045ZM229.311 62.7423C225.466 62.7423 222.497 61.2197 220.404 58.1745C218.348 55.1293 217.32 51.0753 217.32 46.0127C217.32 40.9881 218.348 36.9722 220.404 33.9651C222.459 30.9579 225.428 29.4544 229.311 29.4544C233.155 29.4544 236.124 30.9579 238.218 33.9651C240.35 36.9722 241.415 40.9881 241.415 46.0127C241.415 51.0373 240.35 55.0912 238.218 58.1745C236.124 61.2197 233.155 62.7423 229.311 62.7423ZM229.311 56.8041C231.024 56.8041 232.128 55.7573 232.622 53.6637C233.117 51.5702 233.365 49.0008 233.365 45.9556C233.365 42.9104 233.117 40.341 232.622 38.2474C232.128 36.1538 231.024 35.107 229.311 35.107C227.598 35.107 226.513 36.0967 226.056 38.0761C225.599 40.0555 225.371 42.4726 225.371 45.3275C225.371 48.8295 225.599 51.6273 226.056 53.7208C226.513 55.7764 227.598 56.8041 229.311 56.8041ZM246.853 30.5392L254.847 29.854V32.9944C256.103 31.7383 257.264 30.8437 258.33 30.3108C259.434 29.7398 260.709 29.4544 262.155 29.4544C264.135 29.4544 265.695 30.0063 266.837 31.1102C268.017 32.2141 268.855 33.946 269.35 36.3061C269.883 38.628 270.149 41.7494 270.149 45.6701C270.149 51.0373 269.521 55.2244 268.265 58.2316C267.047 61.2387 264.687 62.7423 261.185 62.7423C259.586 62.7423 258.311 62.4377 257.359 61.8287C256.407 61.2197 255.57 60.3632 254.847 59.2593V70.3933L246.853 71.9921V30.5392ZM258.33 56.6328C259.586 56.6328 260.519 55.8906 261.128 54.406C261.775 52.9215 262.098 50.1237 262.098 46.0127C262.098 42.092 261.775 39.3132 261.128 37.6764C260.519 36.0396 259.567 35.2212 258.273 35.2212C256.94 35.2212 255.798 35.9635 254.847 37.448V54.0634C255.608 55.7764 256.769 56.6328 258.33 56.6328ZM285.901 62.7423C282.095 62.7423 279.183 61.2387 277.165 58.2316C275.148 55.1864 274.139 51.1515 274.139 46.1269C274.139 41.0261 275.167 36.9722 277.222 33.9651C279.278 30.9579 282.266 29.4544 286.187 29.4544C289.917 29.4544 292.772 30.9579 294.751 33.9651C296.731 36.9722 297.72 41.0261 297.72 46.1269C297.72 46.4314 297.663 46.6598 297.549 46.812C297.435 46.9262 297.378 47.0024 297.378 47.0404H282.133C282.133 49.5147 282.456 51.7795 283.103 53.835C283.751 55.8525 284.74 56.8612 286.073 56.8612C287.557 56.8612 288.661 56.0047 289.384 54.2918C290.107 52.5789 290.488 51.6844 290.526 51.6082L296.578 53.8921C295.779 56.6328 294.504 58.8025 292.753 60.4013C291.002 61.9619 288.718 62.7423 285.901 62.7423ZM289.841 42.4155C289.841 40.1316 289.536 38.3235 288.927 36.9912C288.318 35.659 287.367 34.9928 286.073 34.9928C285.425 34.9928 284.797 35.3164 284.188 35.9635C283.579 36.6106 283.084 37.5051 282.704 38.6471C282.323 39.789 282.133 41.0452 282.133 42.4155H289.841ZM310.379 62.7423C304.213 62.7423 301.129 57.1467 301.129 45.9556C301.129 40.1316 301.891 35.9254 303.413 33.337C304.936 30.7486 307.315 29.4544 310.55 29.4544C311.921 29.4544 313.234 29.9111 314.49 30.8247C315.746 31.7002 316.66 32.8041 317.231 34.1364V20.2045L325.282 19.1768V61.6574L319.229 62.3426L317.231 58.0032C316.85 59.4116 316.146 60.5535 315.118 61.429C314.091 62.3045 312.511 62.7423 310.379 62.7423ZM313.348 57.0325C314.49 57.0325 315.423 56.4044 316.146 55.1483C316.869 53.8541 317.231 51.6844 317.231 48.6392V37.9048C316.127 36.1919 314.833 35.3354 313.348 35.3354C312.092 35.3354 311.16 35.7922 310.55 36.7058C309.979 37.5813 309.599 38.7422 309.409 40.1887C309.256 41.6352 309.18 43.5575 309.18 45.9556C309.18 48.3917 309.256 50.3711 309.409 51.8937C309.599 53.4163 309.999 54.6534 310.608 55.6051C311.217 56.5567 312.13 57.0325 313.348 57.0325Z" fill="url(#paint0_linear_3079_70864)"/>
<rect x="357.286" y="8.92859" width="8.78571" height="67.3571" fill="url(#paint1_linear_3079_70864)"/>
<rect x="369" y="8.92859" width="8.78571" height="67.3571" fill="url(#paint2_linear_3079_70864)"/>
<rect x="380.714" y="8.92859" width="8.78571" height="67.3571" fill="url(#paint3_linear_3079_70864)"/>
<defs>
<linearGradient id="paint0_linear_3079_70864" x1="172.5" y1="0" x2="172.5" y2="73" gradientUnits="userSpaceOnUse">
<stop stop-color="#FFFCE1"/>
<stop offset="1" stop-color="#E8E8E8"/>
</linearGradient>
<linearGradient id="paint1_linear_3079_70864" x1="361.679" y1="8.92859" x2="361.679" y2="76.2857" gradientUnits="userSpaceOnUse">
<stop stop-color="#2F4A8E"/>
<stop offset="1" stop-color="#FF5C00"/>
</linearGradient>
<linearGradient id="paint2_linear_3079_70864" x1="373.393" y1="8.92859" x2="373.393" y2="76.2857" gradientUnits="userSpaceOnUse">
<stop stop-color="#D62986"/>
<stop offset="1" stop-color="#29A2D6"/>
</linearGradient>
<linearGradient id="paint3_linear_3079_70864" x1="385.107" y1="8.92859" x2="385.107" y2="76.2857" gradientUnits="userSpaceOnUse">
<stop stop-color="#298DD6"/>
<stop offset="1" stop-color="#29D697"/>
</linearGradient>
</defs>
</svg>
